<svg height='100px' width='100px'  fill="#FFFFFF" xmlns="http://www.w3.org/2000/svg" xmlns:xlink="http://www.w3.org/1999/xlink" xml:space="preserve" version="1.1" style="shape-rendering:geometricPrecision;text-rendering:geometricPrecision;image-rendering:optimizeQuality;" viewBox="0 0 390 390" x="0px" y="0px" fill-rule="evenodd" clip-rule="evenodd"><defs><style type="text/css">
   
    .fil0 {fill:#FFFFFF}
   
  </style></defs><g><path class="fil0" d="M179 0l32 0c10,0 17,8 17,17l0 145 145 0c10,0 17,8 17,17l0 32c0,10 -7,17 -17,17l-145 0 0 145c0,10 -7,17 -17,17l-32 0c-9,0 -17,-7 -17,-17l0 -145 -145 0c-9,0 -17,-7 -17,-17l0 -32c0,-9 8,-17 17,-17l145 0 0 -145c0,-9 8,-17 17,-17z"></path></g></svg>